<?xml version="1.0" encoding="UTF-8"?>
<svg width="661px" height="660px" viewBox="0 0 661 660" version="1.1" xmlns="http://www.w3.org/2000/svg" xmlns:xlink="http://www.w3.org/1999/xlink">
    <!-- Generator: Sketch 52.6 (67491) - http://www.bohemiancoding.com/sketch -->
    <title>Group 2</title>
    <desc>Created with Sketch.</desc>
    <g id="Page-1" stroke="none" stroke-width="1" fill="none" fill-rule="evenodd">
        <g id="Group-2" transform="translate(-1.000000, -1.000000)" fill-rule="nonzero">
            <g id="wheel-copy-2" transform="translate(331.000000, 331.000000) scale(1, -1) translate(-331.000000, -331.000000) translate(126.000000, 126.000000)">
                <rect id="Rectangle-Copy-6" stroke="#979797" fill="#E6E5E5" x="56.5" y="58.5" width="299" height="299"></rect>
                <path d="M205,55.5773503 L75.5961894,130.288675 L75.5961894,279.711325 L205,354.42265 L334.403811,279.711325 L334.403811,130.288675 L205,55.5773503 Z" id="Polygon-Copy-5" stroke="#979797" fill="#CFCCCC" transform="translate(205.000000, 205.000000) rotate(30.000000) translate(-205.000000, -205.000000) "></path>
                <path d="M205,81.5773503 L97.2468245,143.788675 L97.2468245,268.211325 L205,330.42265 L312.753175,268.211325 L312.753175,143.788675 L205,81.5773503 Z" id="Polygon-Copy-4" stroke="#979797" fill="#C2C1C1"></path>
                <rect id="Rectangle-Copy-8" stroke="#979797" x="75.5" y="75.5" width="260" height="259"></rect>
                <rect id="Rectangle" stroke="#979797" fill="#FFFFFF" x="195.5" y="348.5" width="17" height="17"></rect>
                <rect id="Rectangle-Copy-9" stroke="#979797" fill="#FFFFFF" x="346.5" y="348.5" width="17" height="17"></rect>
                <rect id="Rectangle-Copy-10" stroke="#979797" fill="#FFFFFF" x="346.5" y="199.5" width="17" height="17"></rect>
                <rect id="Rectangle-Copy-11" stroke="#979797" fill="#FFFFFF" x="346.5" y="50.5" width="17" height="17"></rect>
                <rect id="Rectangle-Copy-12" stroke="#979797" fill="#FFFFFF" x="195.5" y="50.5" width="17" height="17"></rect>
                <rect id="Rectangle-Copy-13" stroke="#979797" fill="#FFFFFF" x="47.5" y="50.5" width="17" height="17"></rect>
                <rect id="Rectangle-Copy-14" stroke="#979797" fill="#FFFFFF" x="47.5" y="196.5" width="17" height="17"></rect>
                <rect id="Rectangle-Copy-15" stroke="#979797" fill="#FFFFFF" x="47.5" y="348.5" width="17" height="17"></rect>
                <g id="Group" transform="translate(238.200617, 187.669873) rotate(60.000000) translate(-238.200617, -187.669873) translate(228.700617, 100.169873)" fill="#868686">
                    <polygon id="Triangle" points="9.30771366 0.993303749 18.3077137 37.9933037 0.307713659 37.9933037"></polygon>
                    <rect id="Rectangle" x="7.24776792" y="30.5971328" width="4" height="144"></rect>
                </g>
                <g id="Group-Copy" transform="translate(238.200617, 225.669873) rotate(120.000000) translate(-238.200617, -225.669873) translate(228.700617, 138.169873)" fill="#868686">
                    <polygon id="Triangle" points="9.30771366 0.993303749 18.3077137 37.9933037 0.307713659 37.9933037"></polygon>
                    <rect id="Rectangle" x="7.24776792" y="30.5971328" width="4" height="144"></rect>
                </g>
                <g id="Group-Copy-5" transform="translate(172.200617, 186.669873) scale(-1, -1) rotate(120.000000) translate(-172.200617, -186.669873) translate(162.700617, 99.169873)" fill="#868686">
                    <polygon id="Triangle" points="9.30771366 0.993303749 18.3077137 37.9933037 0.307713659 37.9933037"></polygon>
                    <rect id="Rectangle" x="7.24776792" y="30.5971328" width="4" height="144"></rect>
                </g>
                <g id="Group-Copy-4" transform="translate(172.200617, 225.669873) scale(-1, 1) rotate(120.000000) translate(-172.200617, -225.669873) translate(162.700617, 138.169873)" fill="#868686">
                    <polygon id="Triangle" points="9.30771366 0.993303749 18.3077137 37.9933037 0.307713659 37.9933037"></polygon>
                    <rect id="Rectangle" x="7.24776792" y="30.5971328" width="4" height="144"></rect>
                </g>
                <g id="Group-Copy-2" transform="translate(205.200617, 243.669873) rotate(180.000000) translate(-205.200617, -243.669873) translate(195.700617, 156.169873)" fill="#868686">
                    <polygon id="Triangle" points="9.30771366 0.993303749 18.3077137 37.9933037 0.307713659 37.9933037"></polygon>
                    <rect id="Rectangle" x="7.24776792" y="30.5971328" width="4" height="144"></rect>
                </g>
                <g id="Group-Copy-3" transform="translate(204.200617, 167.669873) scale(1, -1) rotate(180.000000) translate(-204.200617, -167.669873) translate(194.700617, 80.169873)" fill="#868686">
                    <polygon id="Triangle" points="9.30771366 0.993303749 18.3077137 37.9933037 0.307713659 37.9933037"></polygon>
                    <rect id="Rectangle" x="6.24776792" y="30.5971328" width="4" height="144"></rect>
                </g>
            </g>
            <g id="Group-Copy-6" opacity="0.595819382" transform="translate(330.200617, 571.330127) scale(1, -1) rotate(180.000000) translate(-330.200617, -571.330127) translate(320.700617, 483.830127)" fill="#868686">
                <polygon id="Triangle" points="9.30771366 0.993303749 18.3077137 37.9933037 0.307713659 37.9933037"></polygon>
                <rect id="Rectangle" x="7.24776792" y="30.5971328" width="4" height="144"></rect>
            </g>
            <g id="Group-Copy-8" opacity="0.601213728" transform="translate(574.200617, 329.330127) scale(1, -1) rotate(-90.000000) translate(-574.200617, -329.330127) translate(564.700617, 241.830127)" fill="#868686">
                <polygon id="Triangle" points="9.30771366 0.993303749 18.3077137 37.9933037 0.307713659 37.9933037"></polygon>
                <rect id="Rectangle" x="7.24776792" y="30.5971328" width="4" height="144"></rect>
            </g>
            <g id="Group-Copy-9" opacity="0.597468" transform="translate(330.200617, 86.830127) scale(1, -1) translate(-330.200617, -86.830127) translate(320.700617, 0.830127)" fill="#868686">
                <polygon id="Triangle" points="9.29938341 0.830127019 18.2993834 36.830127 0.29938341 36.830127"></polygon>
                <rect id="Rectangle" x="7.29938341" y="29.830127" width="4" height="142"></rect>
            </g>
            <g id="Group-Copy-7" opacity="0.602376302" transform="translate(88.200617, 330.330127) scale(1, -1) rotate(90.000000) translate(-88.200617, -330.330127) translate(78.700617, 242.830127)" fill="#868686">
                <polygon id="Triangle" points="9.30771366 0.993303749 18.3077137 37.9933037 0.307713659 37.9933037"></polygon>
                <rect id="Rectangle" x="7.24776792" y="30.5971328" width="4" height="144"></rect>
            </g>
            <rect id="Rectangle" stroke="#979797" x="1.5" y="1.5" width="659" height="659"></rect>
            <rect id="Rectangle-Copy-16" stroke="#979797" x="181.5" y="1.5" width="299" height="659"></rect>
            <rect id="Rectangle-Copy-17" stroke="#979797" x="1.5" y="178.5" width="659" height="299"></rect>
        </g>
    </g>
</svg>